<?xml version="1.0" encoding="UTF-8"?>
<svg xmlns="http://www.w3.org/2000/svg" xmlns:xlink="http://www.w3.org/1999/xlink" width="1252.15pt" height="563.833pt" viewBox="0 0 1252.15 563.833">
<defs>
<g>
<g id="glyph-0-0">
<path d="M 17.796875 -61.5 L 47.5 -70.53125 C 37.390625 -95.140625 67.328125 -112.84375 59.21875 -139.5 C 51.171875 -165.921875 29.59375 -171.765625 5.78125 -164.515625 C -11.25 -159.34375 -23.34375 -146.59375 -30.265625 -131.609375 L -6.515625 -120.21875 C -2.390625 -127.90625 2.09375 -133.5625 9.953125 -135.96875 C 17.8125 -138.359375 24.96875 -136 27.625 -127.25 C 32.40625 -111.515625 4.46875 -89.671875 17.796875 -61.5 Z M 49.0625 -12.078125 C 60.65625 -15.59375 66.390625 -27.34375 62.796875 -39.140625 C 59.203125 -50.953125 47.90625 -57.515625 36.3125 -54 C 24.75 -50.484375 18.78125 -38.65625 22.375 -26.84375 C 25.96875 -15.046875 37.5 -8.5625 49.0625 -12.078125 Z M 49.0625 -12.078125 "/>
</g>
</g>
<clipPath id="clip-0">
<path clip-rule="nonzero" d="M 0 2 L 1251.300781 2 L 1251.300781 563.558594 L 0 563.558594 Z M 0 2 "/>
</clipPath>
<clipPath id="clip-1">
<path clip-rule="nonzero" d="M 63 517 L 288 517 L 288 563.558594 L 63 563.558594 Z M 63 517 "/>
</clipPath>
<clipPath id="clip-2">
<path clip-rule="nonzero" d="M 169 338 L 408 338 L 408 563.558594 L 169 563.558594 Z M 169 338 "/>
</clipPath>
<clipPath id="clip-3">
<path clip-rule="nonzero" d="M 669 362 L 813 362 L 813 563.558594 L 669 563.558594 Z M 669 362 "/>
</clipPath>
<clipPath id="clip-4">
<path clip-rule="nonzero" d="M 852 434 L 1143 434 L 1143 563.558594 L 852 563.558594 Z M 852 434 "/>
</clipPath>
</defs>
<g clip-path="url(#clip-0)">
<path fill-rule="nonzero" fill="rgb(78.039551%, 89.411926%, 93.725586%)" fill-opacity="1" d="M 0 563.558594 L 1251.296875 563.558594 L 1251.296875 2.269531 L 0 2.269531 Z M 0 563.558594 "/>
</g>
<g clip-path="url(#clip-1)">
<path fill-rule="nonzero" fill="rgb(45.489502%, 69.020081%, 67.451477%)" fill-opacity="1" d="M 287.359375 601.53125 C 250.6875 529.476562 135.21875 511.613281 63.367188 518.527344 C 74.90625 532.359375 110.265625 540.839844 127.515625 546 C 153.4375 553.761719 178.738281 562.671875 204.445312 570.492188 C 234.570312 579.660156 266.335938 585.125 287.359375 601.53125 "/>
</g>
<g clip-path="url(#clip-2)">
<path fill-rule="nonzero" fill="rgb(45.489502%, 69.020081%, 67.451477%)" fill-opacity="1" d="M 364.652344 586.5 C 343.632812 567.847656 314.753906 558.488281 292.4375 540.726562 C 266.800781 520.324219 241.257812 498.09375 224.257812 469.820312 C 199.9375 429.363281 182.460938 383.589844 169.046875 338.832031 C 204.058594 389.296875 275.644531 407.167969 318.324219 451.152344 C 352.59375 486.46875 391.625 537.867188 407.265625 584.648438 "/>
</g>
<path fill-rule="nonzero" fill="rgb(100%, 37.254333%, 48.626709%)" fill-opacity="1" d="M 776.164062 110.3125 C 801.605469 84.359375 842.003906 77.550781 874.75 93.324219 C 910.875 110.722656 928.152344 148.09375 923.050781 183.894531 C 954.109375 165.34375 995.269531 166.832031 1025.285156 193.441406 C 1052.480469 217.550781 1061.808594 257.433594 1047.707031 290.925781 C 1035.628906 319.601562 1011.351562 337.609375 984.539062 343.003906 L 791.402344 381.859375 L 752.546875 188.722656 C 747.148438 161.902344 754.371094 132.535156 776.164062 110.3125 "/>
<path fill-rule="nonzero" fill="rgb(98.823547%, 98.823547%, 98.823547%)" fill-opacity="1" d="M 927.929688 267.203125 L 901.121094 252.375 L 915.949219 225.566406 C 917.964844 221.917969 916.644531 217.328125 912.996094 215.3125 L 896.742188 206.320312 C 893.097656 204.304688 888.503906 205.625 886.488281 209.273438 L 871.660156 236.082031 L 844.851562 221.253906 C 841.207031 219.238281 836.613281 220.558594 834.597656 224.207031 L 825.605469 240.460938 C 823.589844 244.105469 824.910156 248.699219 828.558594 250.714844 L 855.367188 265.542969 L 840.539062 292.351562 C 838.523438 295.996094 839.84375 300.589844 843.492188 302.605469 L 859.746094 311.597656 C 863.390625 313.613281 867.984375 312.292969 870 308.644531 L 884.828125 281.835938 L 911.636719 296.664062 C 915.285156 298.679688 919.875 297.359375 921.890625 293.710938 L 930.882812 277.457031 C 932.898438 273.8125 931.578125 269.21875 927.929688 267.203125 "/>
<path fill-rule="nonzero" fill="rgb(98.823547%, 98.823547%, 98.823547%)" fill-opacity="1" d="M 928.421875 268.914062 L 901.613281 254.089844 L 916.441406 227.277344 C 918.460938 223.632812 917.136719 219.042969 913.492188 217.023438 L 897.238281 208.035156 C 893.589844 206.015625 889 207.339844 886.980469 210.984375 L 872.15625 237.796875 L 845.34375 222.96875 C 841.699219 220.949219 837.109375 222.273438 835.089844 225.917969 L 826.101562 242.171875 C 824.082031 245.820312 825.40625 250.410156 829.050781 252.425781 L 855.859375 267.253906 L 841.03125 294.0625 C 839.015625 297.710938 840.335938 302.300781 843.984375 304.320312 L 860.238281 313.308594 C 863.886719 315.324219 868.476562 314.003906 870.492188 310.359375 L 885.320312 283.550781 L 912.128906 298.375 C 915.777344 300.394531 920.367188 299.074219 922.382812 295.425781 L 931.375 279.171875 C 933.390625 275.523438 932.070312 270.933594 928.421875 268.914062 "/>
<path fill-rule="nonzero" fill="rgb(45.489502%, 69.020081%, 67.451477%)" fill-opacity="1" d="M 780.34375 321.113281 C 783.269531 319.640625 786.097656 320.195312 788.476562 321.214844 C 795.253906 324.125 800.074219 330.683594 801.6875 339.210938 C 802.726562 334.710938 803.945312 329.921875 806.859375 326.039062 C 813.148438 317.652344 823.671875 318.898438 827.304688 325.800781 C 830.9375 332.699219 829.925781 342.804688 829.398438 352.195312 C 829.359375 352.902344 829.324219 353.632812 829.546875 354.199219 C 830.160156 355.742188 832.222656 355.328125 833.917969 354.960938 C 845.332031 352.484375 855.023438 359.8125 856.441406 371.988281 C 856.632812 373.640625 856.664062 375.484375 855.851562 377.277344 C 854.191406 380.941406 850.238281 382.253906 847.082031 382.878906 C 828.746094 386.523438 788.714844 397.1875 788.714844 397.1875 C 788.714844 397.1875 776.40625 362.132812 773.140625 345.3125 C 772.375 341.367188 771.699219 337.21875 772.621094 332.671875 C 773.542969 328.125 776.480469 323.058594 780.34375 321.113281 "/>
<g clip-path="url(#clip-3)">
<path fill-rule="nonzero" fill="rgb(45.489502%, 69.020081%, 67.451477%)" fill-opacity="1" d="M 669.71875 709.523438 C 670.003906 707.550781 699.375 510.351562 804.4375 362.003906 L 812.886719 367.992188 C 709.296875 514.253906 680.246094 709.054688 679.964844 711 Z M 669.71875 709.523438 "/>
</g>
<path fill-rule="nonzero" fill="rgb(45.489502%, 69.020081%, 67.451477%)" fill-opacity="1" d="M 720.480469 544.722656 C 747.070312 516.25 782.269531 494.785156 819.140625 476.871094 C 853.777344 460.042969 895.367188 450.4375 927.519531 434 C 907.171875 444.050781 897.777344 468.691406 880.121094 482.964844 C 857.234375 501.464844 827.804688 508.328125 799.5625 514.460938 C 760.851562 522.867188 722.382812 530.566406 720.480469 544.722656 "/>
<path fill-rule="nonzero" fill="rgb(45.489502%, 69.020081%, 67.451477%)" fill-opacity="1" d="M 732.570312 493.605469 C 744.386719 467.09375 751.554688 429.640625 740.828125 398.058594 C 729.347656 364.257812 692.328125 325.207031 694.375 288.382812 C 694.316406 309.1875 688.628906 329.03125 688.507812 349.570312 C 688.363281 374.710938 695.960938 400.972656 706.921875 423.269531 C 719.027344 447.902344 743.882812 481.605469 732.570312 493.605469 "/>
<g clip-path="url(#clip-4)">
<path fill-rule="nonzero" fill="rgb(45.489502%, 69.020081%, 67.451477%)" fill-opacity="1" d="M 893.164062 628.304688 C 918.027344 615.210938 948.304688 613.015625 974.21875 601.097656 C 1003.984375 587.40625 1034.097656 571.917969 1057.355469 548.519531 C 1090.628906 515.042969 1118.53125 474.761719 1142.246094 434.503906 C 1096.195312 475.148438 1022.417969 475.410156 970.464844 507.933594 C 928.757812 534.046875 878.582031 574.640625 852.226562 616.332031 "/>
</g>
<path fill-rule="nonzero" fill="rgb(100%, 75.294495%, 75.294495%)" fill-opacity="1" d="M 623.410156 240.460938 C 623.410156 338.582031 543.871094 418.121094 445.753906 418.121094 C 347.636719 418.121094 268.097656 338.582031 268.097656 240.460938 C 268.097656 142.34375 347.636719 62.804688 445.753906 62.804688 C 543.871094 62.804688 623.410156 142.34375 623.410156 240.460938 "/>
<g fill="rgb(100%, 100%, 100%)" fill-opacity="1">
<use xlink:href="#glyph-0-0" x="422.057993" y="339.535586"/>
</g>
</svg>
