<?xml version="1.0" encoding="UTF-8"?>
<svg xmlns="http://www.w3.org/2000/svg" xmlns:xlink="http://www.w3.org/1999/xlink" width="960pt" height="708.285pt" viewBox="0 0 960 708.285">
<defs>
<g>
<g id="glyph-0-0">
<path d="M 3.203125 0 L 11.0625 0 L 11.0625 -16.96875 C 12.578125 -18.5 13.96875 -19.265625 15.140625 -19.265625 C 17.171875 -19.265625 18.09375 -18.1875 18.09375 -14.671875 L 18.09375 0 L 25.984375 0 L 25.984375 -16.96875 C 27.515625 -18.5 28.84375 -19.265625 30.0625 -19.265625 C 32.046875 -19.265625 33.015625 -18.1875 33.015625 -14.671875 L 33.015625 0 L 40.859375 0 L 40.859375 -15.6875 C 40.859375 -22.015625 38.421875 -25.9375 32.921875 -25.9375 C 29.546875 -25.9375 27.203125 -24 25.015625 -21.75 C 23.75 -24.453125 21.546875 -25.9375 18.03125 -25.9375 C 14.671875 -25.9375 12.4375 -24.203125 10.390625 -22.171875 L 10.1875 -22.171875 L 9.625 -25.328125 L 3.203125 -25.328125 Z M 3.203125 0 "/>
</g>
<g id="glyph-0-1">
<path d="M 14.625 0.609375 C 17.625 0.609375 21.09375 -0.359375 23.75 -2.234375 L 21.203125 -6.984375 C 19.40625 -5.96875 17.578125 -5.40625 15.75 -5.40625 C 12.53125 -5.40625 10.140625 -6.875 9.421875 -10.296875 L 24.359375 -10.296875 C 24.515625 -11 24.65625 -12.328125 24.65625 -13.75 C 24.65625 -20.640625 21.09375 -25.9375 13.75 -25.9375 C 7.6875 -25.9375 1.78125 -20.890625 1.78125 -12.6875 C 1.78125 -4.234375 7.390625 0.609375 14.625 0.609375 Z M 9.328125 -15.59375 C 9.828125 -18.546875 11.71875 -19.96875 13.96875 -19.96875 C 16.8125 -19.96875 17.9375 -18.09375 17.9375 -15.59375 Z M 9.328125 -15.59375 "/>
</g>
<g id="glyph-0-2">
<path d="M 3.203125 0 L 11.0625 0 L 11.0625 -16.96875 C 12.640625 -18.390625 13.703125 -19.265625 15.484375 -19.265625 C 17.53125 -19.265625 18.4375 -18.1875 18.4375 -14.671875 L 18.4375 0 L 26.34375 0 L 26.34375 -15.6875 C 26.34375 -22.015625 24 -25.9375 18.5 -25.9375 C 15.03125 -25.9375 12.484375 -24.203125 10.390625 -22.171875 L 10.1875 -22.171875 L 9.625 -25.328125 L 3.203125 -25.328125 Z M 3.203125 0 "/>
</g>
<g id="glyph-0-3">
<path d="M 13.140625 0.609375 C 15.640625 0.609375 17.578125 0.109375 18.90625 -0.40625 L 17.6875 -5.90625 C 17.015625 -5.65625 16.15625 -5.546875 15.34375 -5.546875 C 13.453125 -5.546875 12.125 -6.625 12.125 -9.484375 L 12.125 -19.15625 L 18.09375 -19.15625 L 18.09375 -25.328125 L 12.125 -25.328125 L 12.125 -33.0625 L 5.609375 -33.0625 L 4.6875 -25.328125 L 0.8125 -25.0625 L 0.8125 -19.15625 L 4.234375 -19.15625 L 4.234375 -9.375 C 4.234375 -3.40625 6.828125 0.609375 13.140625 0.609375 Z M 13.140625 0.609375 "/>
</g>
<g id="glyph-0-4">
<path d="M 9.625 0.609375 C 12.484375 0.609375 14.78125 -0.65625 16.859375 -2.546875 L 17.0625 -2.546875 L 17.625 0 L 24.046875 0 L 24.046875 -14.375 C 24.046875 -22.3125 20.375 -25.9375 13.859375 -25.9375 C 9.890625 -25.9375 6.265625 -24.65625 2.953125 -22.625 L 5.703125 -17.53125 C 8.25 -18.953125 10.296875 -19.671875 12.328125 -19.671875 C 14.921875 -19.671875 16 -18.4375 16.203125 -16.359375 C 6.21875 -15.34375 2.09375 -12.4375 2.09375 -7.078125 C 2.09375 -2.859375 5 0.609375 9.625 0.609375 Z M 12.328125 -5.5 C 10.59375 -5.5 9.625 -6.21875 9.625 -7.6875 C 9.625 -9.484375 11.15625 -10.859375 16.203125 -11.515625 L 16.203125 -7.484375 C 14.984375 -6.265625 13.90625 -5.5 12.328125 -5.5 Z M 12.328125 -5.5 "/>
</g>
<g id="glyph-0-5">
<path d="M 10.390625 0.609375 C 12.125 0.609375 13.453125 0.3125 14.3125 -0.046875 L 13.40625 -5.859375 C 13 -5.75 12.796875 -5.75 12.484375 -5.75 C 11.875 -5.75 11.0625 -6.265625 11.0625 -7.890625 L 11.0625 -35.609375 L 3.203125 -35.609375 L 3.203125 -8.203125 C 3.203125 -2.90625 5 0.609375 10.390625 0.609375 Z M 10.390625 0.609375 "/>
</g>
<g id="glyph-0-6">
<path d="M 10.796875 0.609375 C 17.6875 0.609375 21.34375 -3 21.34375 -7.640625 C 21.34375 -11.828125 18.296875 -14.109375 14.421875 -15.34375 C 11.203125 -16.359375 9.78125 -16.96875 9.78125 -18.296875 C 9.78125 -19.40625 10.65625 -20.125 12.484375 -20.125 C 14.21875 -20.125 16.09375 -19.609375 17.9375 -18.296875 L 21.296875 -22.71875 C 19.109375 -24.5625 15.953125 -25.9375 12.234375 -25.9375 C 6.3125 -25.9375 2.453125 -22.71875 2.453125 -17.9375 C 2.453125 -14.015625 5.5 -11.71875 9.125 -10.390625 C 11.828125 -9.375 13.96875 -8.71875 13.96875 -7.1875 C 13.96875 -5.96875 13.09375 -5.203125 10.953125 -5.203125 C 8.96875 -5.203125 6.671875 -5.8125 4.328125 -7.640625 L 1.015625 -3.203125 C 3.5625 -0.71875 7.4375 0.609375 10.796875 0.609375 Z M 10.796875 0.609375 "/>
</g>
<g id="glyph-0-7">
<path d="M 14.171875 0.609375 C 20.640625 0.609375 26.59375 -4.28125 26.59375 -12.6875 C 26.59375 -21.09375 20.640625 -25.9375 14.171875 -25.9375 C 7.75 -25.9375 1.78125 -21.09375 1.78125 -12.6875 C 1.78125 -4.28125 7.75 0.609375 14.171875 0.609375 Z M 14.171875 -5.75 C 11.203125 -5.75 9.828125 -8.453125 9.828125 -12.6875 C 9.828125 -16.859375 11.203125 -19.609375 14.171875 -19.609375 C 17.125 -19.609375 18.5 -16.859375 18.5 -12.6875 C 18.5 -8.453125 17.125 -5.75 14.171875 -5.75 Z M 14.171875 -5.75 "/>
</g>
<g id="glyph-0-8">
<path d="M 14.375 0.609375 C 17.0625 0.609375 20.28125 -0.15625 22.71875 -2.390625 L 19.671875 -7.34375 C 18.390625 -6.375 16.96875 -5.75 15.28125 -5.75 C 12.171875 -5.75 9.828125 -8.453125 9.828125 -12.6875 C 9.828125 -16.859375 12.03125 -19.609375 15.546875 -19.609375 C 16.65625 -19.609375 17.625 -19.265625 18.796875 -18.390625 L 22.46875 -23.234375 C 20.578125 -24.859375 18.1875 -25.9375 15.078125 -25.9375 C 8.046875 -25.9375 1.78125 -21.09375 1.78125 -12.6875 C 1.78125 -4.28125 7.234375 0.609375 14.375 0.609375 Z M 14.375 0.609375 "/>
</g>
<g id="glyph-0-9">
<path d="M 3.203125 0 L 11.0625 0 L 11.0625 -25.328125 L 3.203125 -25.328125 Z M 7.140625 -28.890625 C 9.734375 -28.890625 11.5625 -30.46875 11.5625 -32.96875 C 11.5625 -35.40625 9.734375 -36.984375 7.140625 -36.984375 C 4.53125 -36.984375 2.703125 -35.40625 2.703125 -32.96875 C 2.703125 -30.46875 4.53125 -28.890625 7.140625 -28.890625 Z M 7.140625 -28.890625 "/>
</g>
<g id="glyph-0-10">
<path d="M 4.53125 0 L 12.4375 0 L 12.4375 -19.15625 L 16.921875 -19.15625 L 16.921875 -25.328125 L 12.4375 -25.328125 L 12.4375 -26.59375 C 12.4375 -29.09375 13.5 -30.0625 15.234375 -30.0625 C 16.09375 -30.0625 16.921875 -29.953125 17.78125 -29.703125 L 19.265625 -35.3125 C 18.140625 -35.765625 16.3125 -36.234375 14.109375 -36.234375 C 7.03125 -36.234375 4.53125 -31.6875 4.53125 -26.34375 L 4.53125 -25.265625 L 1.171875 -25.0625 L 1.171875 -19.15625 L 4.53125 -19.15625 Z M 4.53125 0 "/>
</g>
<g id="glyph-0-11">
<path d="M 6.3125 9.78125 C 12.375 9.78125 15.078125 6.578125 17.578125 0.046875 L 26.296875 -25.328125 L 18.75 -25.328125 L 15.84375 -14.828125 C 15.1875 -12.4375 14.671875 -10.03125 14.109375 -7.640625 L 13.90625 -7.640625 C 13.25 -10.140625 12.6875 -12.484375 11.96875 -14.828125 L 8.515625 -25.328125 L 0.609375 -25.328125 L 10.34375 -0.71875 L 9.984375 0.515625 C 9.375 2.34375 8.15625 3.625 5.703125 3.625 C 5.203125 3.625 4.84375 3.5625 4.03125 3.359375 L 2.65625 9.171875 C 3.671875 9.578125 4.6875 9.78125 6.3125 9.78125 Z M 6.3125 9.78125 "/>
</g>
<g id="glyph-0-12">
<path d="M 3.203125 0 L 11 0 L 11 -6.265625 L 13.90625 -9.625 L 19.40625 0 L 27.96875 0 L 18.546875 -14.78125 L 27.359375 -25.328125 L 18.703125 -25.328125 L 11.15625 -15.75 L 11 -15.75 L 11 -35.609375 L 3.203125 -35.609375 Z M 3.203125 0 "/>
</g>
</g>
<clipPath id="clip-0">
<path clip-rule="nonzero" d="M 0.484375 0 L 959.515625 0 L 959.515625 707.570312 L 0.484375 707.570312 Z M 0.484375 0 "/>
</clipPath>
<clipPath id="clip-1">
<path clip-rule="nonzero" d="M 40 45 L 481 45 L 481 357 L 40 357 Z M 40 45 "/>
</clipPath>
<clipPath id="clip-2">
<path clip-rule="nonzero" d="M 40.898438 356.730469 C 40.898438 528.484375 238.203125 667.722656 481.589844 667.722656 C 724.976562 667.722656 922.277344 528.484375 922.277344 356.730469 C 922.277344 184.972656 724.976562 45.734375 481.589844 45.734375 C 238.203125 45.734375 40.898438 184.972656 40.898438 356.730469 "/>
</clipPath>
<clipPath id="clip-3">
<path clip-rule="nonzero" d="M 480 356 L 923 356 L 923 668 L 480 668 Z M 480 356 "/>
</clipPath>
<clipPath id="clip-4">
<path clip-rule="nonzero" d="M 40.898438 356.730469 C 40.898438 528.484375 238.203125 667.722656 481.589844 667.722656 C 724.976562 667.722656 922.277344 528.484375 922.277344 356.730469 C 922.277344 184.972656 724.976562 45.734375 481.589844 45.734375 C 238.203125 45.734375 40.898438 184.972656 40.898438 356.730469 "/>
</clipPath>
<clipPath id="clip-5">
<path clip-rule="nonzero" d="M 480 45 L 923 45 L 923 357 L 480 357 Z M 480 45 "/>
</clipPath>
<clipPath id="clip-6">
<path clip-rule="nonzero" d="M 40.898438 356.730469 C 40.898438 528.484375 238.203125 667.722656 481.589844 667.722656 C 724.976562 667.722656 922.277344 528.484375 922.277344 356.730469 C 922.277344 184.972656 724.976562 45.734375 481.589844 45.734375 C 238.203125 45.734375 40.898438 184.972656 40.898438 356.730469 "/>
</clipPath>
<clipPath id="clip-7">
<path clip-rule="nonzero" d="M 40 356 L 481 356 L 481 668 L 40 668 Z M 40 356 "/>
</clipPath>
<clipPath id="clip-8">
<path clip-rule="nonzero" d="M 40.898438 356.730469 C 40.898438 528.484375 238.203125 667.722656 481.589844 667.722656 C 724.976562 667.722656 922.277344 528.484375 922.277344 356.730469 C 922.277344 184.972656 724.976562 45.734375 481.589844 45.734375 C 238.203125 45.734375 40.898438 184.972656 40.898438 356.730469 "/>
</clipPath>
<clipPath id="clip-9">
<path clip-rule="nonzero" d="M 391 480 L 481 480 L 481 560 L 391 560 Z M 391 480 "/>
</clipPath>
<clipPath id="clip-10">
<path clip-rule="nonzero" d="M 40.898438 356.730469 C 40.898438 528.484375 238.203125 667.722656 481.589844 667.722656 C 724.976562 667.722656 922.277344 528.484375 922.277344 356.730469 C 922.277344 184.972656 724.976562 45.734375 481.589844 45.734375 C 238.203125 45.734375 40.898438 184.972656 40.898438 356.730469 "/>
</clipPath>
<clipPath id="clip-11">
<path clip-rule="nonzero" d="M 276 268 L 356 268 L 356 358 L 276 358 Z M 276 268 "/>
</clipPath>
<clipPath id="clip-12">
<path clip-rule="nonzero" d="M 40.898438 356.730469 C 40.898438 528.484375 238.203125 667.722656 481.589844 667.722656 C 724.976562 667.722656 922.277344 528.484375 922.277344 356.730469 C 922.277344 184.972656 724.976562 45.734375 481.589844 45.734375 C 238.203125 45.734375 40.898438 184.972656 40.898438 356.730469 "/>
</clipPath>
<clipPath id="clip-13">
<path clip-rule="nonzero" d="M 480 151 L 570 151 L 570 232 L 480 232 Z M 480 151 "/>
</clipPath>
<clipPath id="clip-14">
<path clip-rule="nonzero" d="M 40.898438 356.730469 C 40.898438 528.484375 238.203125 667.722656 481.589844 667.722656 C 724.976562 667.722656 922.277344 528.484375 922.277344 356.730469 C 922.277344 184.972656 724.976562 45.734375 481.589844 45.734375 C 238.203125 45.734375 40.898438 184.972656 40.898438 356.730469 "/>
</clipPath>
<clipPath id="clip-15">
<path clip-rule="nonzero" d="M 605 356 L 686 356 L 686 446 L 605 446 Z M 605 356 "/>
</clipPath>
<clipPath id="clip-16">
<path clip-rule="nonzero" d="M 40.898438 356.730469 C 40.898438 528.484375 238.203125 667.722656 481.589844 667.722656 C 724.976562 667.722656 922.277344 528.484375 922.277344 356.730469 C 922.277344 184.972656 724.976562 45.734375 481.589844 45.734375 C 238.203125 45.734375 40.898438 184.972656 40.898438 356.730469 "/>
</clipPath>
<clipPath id="clip-17">
<path clip-rule="nonzero" d="M 208 198 L 324 198 L 324 232 L 208 232 Z M 208 198 "/>
</clipPath>
<clipPath id="clip-18">
<path clip-rule="nonzero" d="M 40.898438 356.730469 C 40.898438 528.484375 238.203125 667.722656 481.589844 667.722656 C 724.976562 667.722656 922.277344 528.484375 922.277344 356.730469 C 922.277344 184.972656 724.976562 45.734375 481.589844 45.734375 C 238.203125 45.734375 40.898438 184.972656 40.898438 356.730469 "/>
</clipPath>
<clipPath id="clip-19">
<path clip-rule="nonzero" d="M 325 195 L 365 195 L 365 232 L 325 232 Z M 325 195 "/>
</clipPath>
<clipPath id="clip-20">
<path clip-rule="nonzero" d="M 40.898438 356.730469 C 40.898438 528.484375 238.203125 667.722656 481.589844 667.722656 C 724.976562 667.722656 922.277344 528.484375 922.277344 356.730469 C 922.277344 184.972656 724.976562 45.734375 481.589844 45.734375 C 238.203125 45.734375 40.898438 184.972656 40.898438 356.730469 "/>
</clipPath>
<clipPath id="clip-21">
<path clip-rule="nonzero" d="M 222 467 L 352 467 L 352 506 L 222 506 Z M 222 467 "/>
</clipPath>
<clipPath id="clip-22">
<path clip-rule="nonzero" d="M 40.898438 356.730469 C 40.898438 528.484375 238.203125 667.722656 481.589844 667.722656 C 724.976562 667.722656 922.277344 528.484375 922.277344 356.730469 C 922.277344 184.972656 724.976562 45.734375 481.589844 45.734375 C 238.203125 45.734375 40.898438 184.972656 40.898438 356.730469 "/>
</clipPath>
<clipPath id="clip-23">
<path clip-rule="nonzero" d="M 619 194 L 751 194 L 751 241 L 619 241 Z M 619 194 "/>
</clipPath>
<clipPath id="clip-24">
<path clip-rule="nonzero" d="M 40.898438 356.730469 C 40.898438 528.484375 238.203125 667.722656 481.589844 667.722656 C 724.976562 667.722656 922.277344 528.484375 922.277344 356.730469 C 922.277344 184.972656 724.976562 45.734375 481.589844 45.734375 C 238.203125 45.734375 40.898438 184.972656 40.898438 356.730469 "/>
</clipPath>
<clipPath id="clip-25">
<path clip-rule="nonzero" d="M 545 479 L 641 479 L 641 506 L 545 506 Z M 545 479 "/>
</clipPath>
<clipPath id="clip-26">
<path clip-rule="nonzero" d="M 40.898438 356.730469 C 40.898438 528.484375 238.203125 667.722656 481.589844 667.722656 C 724.976562 667.722656 922.277344 528.484375 922.277344 356.730469 C 922.277344 184.972656 724.976562 45.734375 481.589844 45.734375 C 238.203125 45.734375 40.898438 184.972656 40.898438 356.730469 "/>
</clipPath>
<clipPath id="clip-27">
<path clip-rule="nonzero" d="M 641 468 L 789 468 L 789 506 L 641 506 Z M 641 468 "/>
</clipPath>
<clipPath id="clip-28">
<path clip-rule="nonzero" d="M 40.898438 356.730469 C 40.898438 528.484375 238.203125 667.722656 481.589844 667.722656 C 724.976562 667.722656 922.277344 528.484375 922.277344 356.730469 C 922.277344 184.972656 724.976562 45.734375 481.589844 45.734375 C 238.203125 45.734375 40.898438 184.972656 40.898438 356.730469 "/>
</clipPath>
</defs>
<g clip-path="url(#clip-0)">
<path fill-rule="nonzero" fill="rgb(98.431396%, 93.333435%, 89.804077%)" fill-opacity="1" d="M 0.484375 707.570312 L 959.515625 707.570312 L 959.515625 0 L 0.484375 0 Z M 0.484375 707.570312 "/>
</g>
<g clip-path="url(#clip-1)">
<g clip-path="url(#clip-2)">
<path fill-rule="nonzero" fill="rgb(60.392761%, 81.568909%, 84.706116%)" fill-opacity="1" d="M 24.519531 356.730469 L 480.769531 356.730469 L 480.769531 5.886719 L 24.519531 5.886719 Z M 24.519531 356.730469 "/>
</g>
</g>
<g clip-path="url(#clip-3)">
<g clip-path="url(#clip-4)">
<path fill-rule="nonzero" fill="rgb(74.118042%, 86.66687%, 86.66687%)" fill-opacity="1" d="M 480.769531 707.570312 L 937.019531 707.570312 L 937.019531 356.730469 L 480.769531 356.730469 Z M 480.769531 707.570312 "/>
</g>
</g>
<g clip-path="url(#clip-5)">
<g clip-path="url(#clip-6)">
<path fill-rule="nonzero" fill="rgb(97.647095%, 70.588684%, 70.588684%)" fill-opacity="1" d="M 480.769531 356.730469 L 937.019531 356.730469 L 937.019531 5.886719 L 480.769531 5.886719 Z M 480.769531 356.730469 "/>
</g>
</g>
<g clip-path="url(#clip-7)">
<g clip-path="url(#clip-8)">
<path fill-rule="nonzero" fill="rgb(91.764832%, 79.608154%, 49.01886%)" fill-opacity="1" d="M 24.519531 707.570312 L 480.769531 707.570312 L 480.769531 356.730469 L 24.519531 356.730469 Z M 24.519531 707.570312 "/>
</g>
</g>
<g clip-path="url(#clip-9)">
<g clip-path="url(#clip-10)">
<path fill-rule="nonzero" fill="rgb(74.118042%, 86.66687%, 86.66687%)" fill-opacity="1" d="M 480.769531 481.21875 C 478.472656 490.835938 467.128906 496.023438 458.152344 490.425781 C 437.285156 477.410156 411.480469 474.4375 397.285156 498.558594 C 385.777344 518.117188 393.164062 544.960938 413.117188 555.808594 C 422.917969 561.136719 432.019531 560.671875 440.890625 557.652344 C 446.78125 555.695312 452.613281 552.527344 458.734375 549.207031 C 460.710938 548.128906 462.699219 547.457031 464.632812 547.121094 C 471.921875 546.390625 478.988281 551.175781 480.761719 558.523438 "/>
</g>
</g>
<g clip-path="url(#clip-11)">
<g clip-path="url(#clip-12)">
<path fill-rule="nonzero" fill="rgb(91.764832%, 79.608154%, 49.01886%)" fill-opacity="1" d="M 354.871094 357.421875 C 345.253906 355.125 340.066406 343.78125 345.664062 334.804688 C 358.679688 313.933594 361.652344 288.128906 337.53125 273.9375 C 317.972656 262.429688 291.128906 269.816406 280.28125 289.769531 C 274.953125 299.570312 275.417969 308.671875 278.4375 317.542969 C 280.394531 323.433594 283.5625 329.265625 286.886719 335.382812 C 287.960938 337.363281 288.632812 339.351562 288.96875 341.285156 C 289.699219 348.574219 284.914062 355.640625 277.566406 357.414062 "/>
</g>
</g>
<g clip-path="url(#clip-13)">
<g clip-path="url(#clip-14)">
<path fill-rule="nonzero" fill="rgb(60.392761%, 81.568909%, 84.706116%)" fill-opacity="1" d="M 480.769531 230.359375 C 483.066406 220.742188 494.410156 215.554688 503.386719 221.152344 C 524.257812 234.167969 550.0625 237.140625 564.253906 213.019531 C 575.761719 193.460938 568.375 166.617188 548.421875 155.769531 C 538.621094 150.441406 529.519531 150.90625 520.648438 153.925781 C 514.761719 155.882812 508.925781 159.050781 502.808594 162.375 C 500.828125 163.449219 498.839844 164.121094 496.90625 164.457031 C 489.621094 165.1875 482.550781 160.402344 480.777344 153.054688 "/>
</g>
</g>
<g clip-path="url(#clip-15)">
<g clip-path="url(#clip-16)">
<path fill-rule="nonzero" fill="rgb(97.647095%, 70.588684%, 70.588684%)" fill-opacity="1" d="M 606.695312 356.949219 C 616.3125 359.246094 621.5 370.589844 615.902344 379.566406 C 602.886719 400.4375 599.914062 426.242188 624.035156 440.433594 C 643.589844 451.945312 670.4375 444.554688 681.285156 424.601562 C 686.613281 414.804688 686.148438 405.703125 683.128906 396.832031 C 681.171875 390.941406 678.003906 385.105469 674.679688 378.988281 C 673.605469 377.007812 672.933594 375.019531 672.597656 373.085938 C 671.867188 365.800781 676.652344 358.734375 684 356.957031 "/>
</g>
</g>
<g clip-path="url(#clip-17)">
<g clip-path="url(#clip-18)">
<g fill="rgb(21.568298%, 42.744446%, 48.626709%)" fill-opacity="1">
<use xlink:href="#glyph-0-0" x="205.253951" y="231.080029"/>
<use xlink:href="#glyph-0-1" x="249.120668" y="231.080029"/>
<use xlink:href="#glyph-0-2" x="275.613924" y="231.080029"/>
<use xlink:href="#glyph-0-3" x="304.909351" y="231.080029"/>
</g>
</g>
</g>
<g clip-path="url(#clip-19)">
<g clip-path="url(#clip-20)">
<g fill="rgb(21.568298%, 42.744446%, 48.626709%)" fill-opacity="1">
<use xlink:href="#glyph-0-4" x="323.658424" y="231.080029"/>
<use xlink:href="#glyph-0-5" x="350.661165" y="231.080029"/>
</g>
</g>
</g>
<g clip-path="url(#clip-21)">
<g clip-path="url(#clip-22)">
<g fill="rgb(21.568298%, 42.744446%, 48.626709%)" fill-opacity="1">
<use xlink:href="#glyph-0-6" x="221.30275" y="504.622893"/>
<use xlink:href="#glyph-0-7" x="244.025811" y="504.622893"/>
<use xlink:href="#glyph-0-8" x="272.404164" y="504.622893"/>
<use xlink:href="#glyph-0-9" x="296.299043" y="504.622893"/>
<use xlink:href="#glyph-0-4" x="310.564642" y="504.622893"/>
<use xlink:href="#glyph-0-5" x="337.567383" y="504.622893"/>
</g>
</g>
</g>
<g clip-path="url(#clip-23)">
<g clip-path="url(#clip-24)">
<g fill="rgb(21.568298%, 42.744446%, 48.626709%)" fill-opacity="1">
<use xlink:href="#glyph-0-10" x="618.395892" y="231.080029"/>
<use xlink:href="#glyph-0-11" x="636.075045" y="231.080029"/>
<use xlink:href="#glyph-0-6" x="662.975889" y="231.080029"/>
<use xlink:href="#glyph-0-9" x="685.698951" y="231.080029"/>
<use xlink:href="#glyph-0-6" x="699.96455" y="231.080029"/>
<use xlink:href="#glyph-0-12" x="722.687612" y="231.080029"/>
</g>
</g>
</g>
<g clip-path="url(#clip-25)">
<g clip-path="url(#clip-26)">
<g fill="rgb(21.568298%, 42.744446%, 48.626709%)" fill-opacity="1">
<use xlink:href="#glyph-0-1" x="543.501496" y="505.234276"/>
<use xlink:href="#glyph-0-0" x="569.994752" y="505.234276"/>
<use xlink:href="#glyph-0-7" x="613.861469" y="505.234276"/>
</g>
</g>
</g>
<g clip-path="url(#clip-27)">
<g clip-path="url(#clip-28)">
<g fill="rgb(21.568298%, 42.744446%, 48.626709%)" fill-opacity="1">
<use xlink:href="#glyph-0-3" x="640.813262" y="505.234276"/>
<use xlink:href="#glyph-0-9" x="660.581307" y="505.234276"/>
<use xlink:href="#glyph-0-7" x="674.846906" y="505.234276"/>
<use xlink:href="#glyph-0-2" x="703.225258" y="505.234276"/>
<use xlink:href="#glyph-0-1" x="732.520685" y="505.234276"/>
<use xlink:href="#glyph-0-5" x="759.013941" y="505.234276"/>
<use xlink:href="#glyph-0-5" x="773.789026" y="505.234276"/>
</g>
</g>
</g>
</svg>
