<?xml version="1.0" encoding="UTF-8"?>
<svg xmlns="http://www.w3.org/2000/svg" xmlns:xlink="http://www.w3.org/1999/xlink" width="1032.89pt" height="540.583pt" viewBox="0 0 1032.89 540.583">
<defs>
<g>
<g id="glyph-0-0">
<path d="M 17.796875 -61.5 L 47.5 -70.53125 C 37.390625 -95.140625 67.328125 -112.84375 59.21875 -139.5 C 51.171875 -165.921875 29.609375 -171.75 5.796875 -164.5 C -11.25 -159.3125 -23.359375 -146.578125 -30.25 -131.59375 L -6.5 -120.203125 C -2.390625 -127.90625 2.09375 -133.5625 9.953125 -135.96875 C 17.8125 -138.359375 24.96875 -135.984375 27.625 -127.25 C 32.40625 -111.515625 4.46875 -89.65625 17.796875 -61.5 Z M 49.0625 -12.078125 C 60.65625 -15.59375 66.390625 -27.34375 62.796875 -39.140625 C 59.203125 -50.9375 47.90625 -57.515625 36.3125 -54 C 24.75 -50.484375 18.78125 -38.640625 22.375 -26.84375 C 25.96875 -15.046875 37.5 -8.5625 49.0625 -12.078125 Z M 49.0625 -12.078125 "/>
</g>
</g>
<clipPath id="clip-0">
<path clip-rule="nonzero" d="M 0.34375 0 L 1032.4375 0 L 1032.4375 540.167969 L 0.34375 540.167969 Z M 0.34375 0 "/>
</clipPath>
<clipPath id="clip-1">
<path clip-rule="nonzero" d="M 0.34375 493 L 150 493 L 150 540.167969 L 0.34375 540.167969 Z M 0.34375 493 "/>
</clipPath>
<clipPath id="clip-2">
<path clip-rule="nonzero" d="M 30 315 L 270 315 L 270 540.167969 L 30 540.167969 Z M 30 315 "/>
</clipPath>
<clipPath id="clip-3">
<path clip-rule="nonzero" d="M 531 338 L 675 338 L 675 540.167969 L 531 540.167969 Z M 531 338 "/>
</clipPath>
<clipPath id="clip-4">
<path clip-rule="nonzero" d="M 713 411 L 1004 411 L 1004 540.167969 L 713 540.167969 Z M 713 411 "/>
</clipPath>
</defs>
<g clip-path="url(#clip-0)">
<path fill-rule="nonzero" fill="rgb(78.039551%, 89.411926%, 93.725586%)" fill-opacity="1" d="M 0.34375 540.167969 L 1032.4375 540.167969 L 1032.4375 0 L 0.34375 0 Z M 0.34375 540.167969 "/>
</g>
<g clip-path="url(#clip-1)">
<path fill-rule="nonzero" fill="rgb(45.489502%, 69.020081%, 67.451477%)" fill-opacity="1" d="M 149.117188 578.136719 C 112.445312 506.085938 -3.007812 488.222656 -74.855469 495.140625 C -63.316406 508.972656 -27.960938 517.449219 -10.714844 522.609375 C 15.207031 530.367188 40.503906 539.28125 66.207031 547.101562 C 96.332031 556.265625 128.09375 561.730469 149.117188 578.136719 "/>
</g>
<g clip-path="url(#clip-2)">
<path fill-rule="nonzero" fill="rgb(45.489502%, 69.020081%, 67.451477%)" fill-opacity="1" d="M 226.402344 563.105469 C 205.386719 544.457031 176.507812 535.09375 154.191406 517.335938 C 128.558594 496.9375 103.019531 474.707031 86.023438 446.4375 C 61.703125 405.984375 44.226562 360.214844 30.8125 315.460938 C 65.824219 365.921875 137.402344 383.789062 180.078125 427.773438 C 214.34375 463.082031 253.375 514.476562 269.011719 561.253906 "/>
</g>
<path fill-rule="nonzero" fill="rgb(100%, 37.254333%, 48.626709%)" fill-opacity="1" d="M 637.875 86.960938 C 663.316406 61.011719 703.710938 54.207031 736.453125 69.972656 C 772.570312 87.371094 789.847656 124.738281 784.75 160.539062 C 815.804688 141.988281 856.960938 143.476562 886.976562 170.085938 C 914.164062 194.191406 923.496094 234.070312 909.390625 267.558594 C 897.316406 296.234375 873.042969 314.238281 846.230469 319.632812 L 653.113281 358.484375 L 614.257812 165.363281 C 608.863281 138.546875 616.085938 109.183594 637.875 86.960938 "/>
<path fill-rule="nonzero" fill="rgb(98.823547%, 98.823547%, 98.823547%)" fill-opacity="1" d="M 789.628906 243.839844 L 762.820312 229.011719 L 777.648438 202.207031 C 779.664062 198.558594 778.34375 193.96875 774.695312 191.953125 L 758.445312 182.960938 C 754.796875 180.945312 750.207031 182.265625 748.191406 185.914062 L 733.363281 212.71875 L 706.558594 197.894531 C 702.910156 195.875 698.320312 197.199219 696.304688 200.84375 L 687.3125 217.097656 C 685.296875 220.742188 686.617188 225.335938 690.265625 227.351562 L 717.070312 242.179688 L 702.246094 268.984375 C 700.230469 272.628906 701.550781 277.222656 705.195312 279.238281 L 721.449219 288.226562 C 725.09375 290.242188 729.6875 288.921875 731.703125 285.277344 L 746.53125 258.46875 L 773.335938 273.296875 C 776.980469 275.3125 781.574219 273.992188 783.589844 270.34375 L 792.578125 254.09375 C 794.59375 250.445312 793.273438 245.855469 789.628906 243.839844 "/>
<path fill-rule="nonzero" fill="rgb(98.823547%, 98.823547%, 98.823547%)" fill-opacity="1" d="M 790.121094 245.550781 L 763.316406 230.722656 L 778.140625 203.917969 C 780.15625 200.273438 778.835938 195.679688 775.191406 193.664062 L 758.9375 184.675781 C 755.289062 182.660156 750.699219 183.980469 748.683594 187.625 L 733.855469 214.433594 L 707.050781 199.605469 C 703.402344 197.589844 698.8125 198.910156 696.796875 202.558594 L 687.808594 218.808594 C 685.789062 222.457031 687.113281 227.046875 690.757812 229.0625 L 717.566406 243.890625 L 702.738281 270.695312 C 700.722656 274.34375 702.042969 278.933594 705.6875 280.949219 L 721.941406 289.941406 C 725.589844 291.957031 730.179688 290.636719 732.195312 286.988281 L 747.023438 260.183594 L 773.828125 275.007812 C 777.476562 277.027344 782.066406 275.703125 784.082031 272.058594 L 793.070312 255.804688 C 795.089844 252.160156 793.765625 247.566406 790.121094 245.550781 "/>
<path fill-rule="nonzero" fill="rgb(45.489502%, 69.020081%, 67.451477%)" fill-opacity="1" d="M 642.054688 297.742188 C 644.980469 296.269531 647.808594 296.824219 650.1875 297.847656 C 656.964844 300.753906 661.78125 307.316406 663.398438 315.839844 C 664.4375 311.339844 665.65625 306.550781 668.566406 302.667969 C 674.855469 294.285156 685.378906 295.53125 689.011719 302.429688 C 692.644531 309.328125 691.632812 319.433594 691.105469 328.820312 C 691.066406 329.53125 691.03125 330.261719 691.253906 330.824219 C 691.867188 332.371094 693.929688 331.953125 695.625 331.585938 C 707.035156 329.113281 716.726562 336.441406 718.144531 348.613281 C 718.335938 350.265625 718.367188 352.109375 717.554688 353.902344 C 715.898438 357.566406 711.941406 358.878906 708.785156 359.503906 C 690.453125 363.148438 650.425781 373.8125 650.425781 373.8125 C 650.425781 373.8125 638.117188 338.757812 634.851562 321.941406 C 634.085938 317.996094 633.410156 313.847656 634.335938 309.300781 C 635.253906 304.753906 638.191406 299.6875 642.054688 297.742188 "/>
<g clip-path="url(#clip-3)">
<path fill-rule="nonzero" fill="rgb(45.489502%, 69.020081%, 67.451477%)" fill-opacity="1" d="M 531.441406 686.117188 C 531.726562 684.144531 561.09375 486.964844 666.144531 338.632812 L 674.59375 344.621094 C 571.011719 490.867188 541.964844 685.648438 541.683594 687.597656 Z M 531.441406 686.117188 "/>
</g>
<path fill-rule="nonzero" fill="rgb(45.489502%, 69.020081%, 67.451477%)" fill-opacity="1" d="M 582.199219 521.332031 C 608.785156 492.863281 643.980469 471.398438 680.847656 453.488281 C 715.480469 436.660156 757.070312 427.054688 789.21875 410.621094 C 768.871094 420.667969 759.480469 445.308594 741.824219 459.578125 C 718.941406 478.078125 689.511719 484.9375 661.273438 491.070312 C 622.5625 499.480469 584.097656 507.175781 582.199219 521.332031 "/>
<path fill-rule="nonzero" fill="rgb(45.489502%, 69.020081%, 67.451477%)" fill-opacity="1" d="M 594.285156 470.21875 C 606.101562 443.710938 613.269531 406.261719 602.542969 374.683594 C 591.0625 340.882812 554.046875 301.835938 556.09375 265.015625 C 556.035156 285.820312 550.347656 305.664062 550.230469 326.199219 C 550.085938 351.335938 557.679688 377.59375 568.636719 399.890625 C 580.746094 424.523438 605.597656 458.21875 594.285156 470.21875 "/>
<g clip-path="url(#clip-4)">
<path fill-rule="nonzero" fill="rgb(45.489502%, 69.020081%, 67.451477%)" fill-opacity="1" d="M 754.863281 604.910156 C 779.726562 591.816406 810 589.617188 835.914062 577.703125 C 865.675781 564.011719 895.785156 548.527344 919.039062 525.128906 C 952.3125 491.652344 980.210938 451.378906 1003.921875 411.125 C 957.878906 451.765625 884.105469 452.027344 832.160156 484.546875 C 790.453125 510.65625 740.285156 551.246094 713.929688 592.933594 "/>
</g>
<path fill-rule="nonzero" fill="rgb(100%, 75.294495%, 75.294495%)" fill-opacity="1" d="M 485.136719 217.101562 C 485.136719 315.210938 405.605469 394.742188 307.496094 394.742188 C 209.386719 394.742188 129.855469 315.210938 129.855469 217.101562 C 129.855469 118.992188 209.386719 39.460938 307.496094 39.460938 C 405.605469 39.460938 485.136719 118.992188 485.136719 217.101562 "/>
<g fill="rgb(100%, 100%, 100%)" fill-opacity="1">
<use xlink:href="#glyph-0-0" x="283.802858" y="316.164314"/>
</g>
</svg>
