<?xml version="1.0" encoding="UTF-8"?>
<svg xmlns="http://www.w3.org/2000/svg" xmlns:xlink="http://www.w3.org/1999/xlink" width="462.102pt" height="214.17pt" viewBox="0 0 462.102 214.17">
<defs>
<filter id="filter-remove-color" x="0%" y="0%" width="100%" height="100%">
<feColorMatrix color-interpolation-filters="sRGB" values="0 0 0 0 1 0 0 0 0 1 0 0 0 0 1 0 0 0 1 0" />
</filter>
<clipPath id="clip-0">
<path clip-rule="nonzero" d="M 0.445312 0 L 460.761719 0 L 460.761719 213 L 0.445312 213 Z M 0.445312 0 "/>
</clipPath>
<clipPath id="clip-1">
<path clip-rule="nonzero" d="M 242 0 L 448 0 L 448 213 L 242 213 Z M 242 0 "/>
</clipPath>
<clipPath id="clip-2">
<path clip-rule="nonzero" d="M 23.472656 0 C 10.6875 0.703125 0.445312 11.378906 0.445312 24.332031 L 0.445312 188.628906 C 0.445312 202.035156 11.410156 213 24.8125 213 L 436.394531 213 C 449.796875 213 460.761719 202.035156 460.761719 188.628906 L 460.761719 24.332031 C 460.761719 11.378906 450.519531 0.703125 437.734375 0 Z M 23.472656 0 "/>
</clipPath>
<clipPath id="clip-3">
<path clip-rule="nonzero" d="M 294 168 L 324 168 L 324 213 L 294 213 Z M 294 168 "/>
</clipPath>
<clipPath id="clip-4">
<path clip-rule="nonzero" d="M 313.019531 0 C 310.789062 13.441406 307.261719 27.023438 305.976562 32.726562 C 303.929688 41.785156 301.988281 50.398438 296.230469 60.058594 C 289.3125 71.675781 282.894531 74.714844 274.171875 84.085938 C 262.074219 97.082031 256.628906 110.109375 251.941406 122.207031 C 239.96875 153.105469 242.300781 192.273438 245.4375 213 L 396.457031 213 C 400.761719 206.054688 404.742188 198.132812 407.925781 189.191406 C 416.539062 164.964844 415.734375 143.265625 414.648438 132.554688 C 413.257812 118.871094 410.753906 115.519531 409.398438 105.503906 C 407.292969 89.953125 410.148438 53.28125 446.875 2.347656 C 444.078125 1.003906 440.988281 0.179688 437.734375 0 Z M 313.019531 0 "/>
</clipPath>
<mask id="mask-0">
<g filter="url(#filter-remove-color)">
<rect x="-46.2102" y="-21.417" width="554.5224" height="257.004" fill="rgb(0%, 0%, 0%)" fill-opacity="0.139999"/>
</g>
</mask>
<clipPath id="clip-5">
<path clip-rule="nonzero" d="M 0.730469 0.742188 L 30 0.742188 L 30 45 L 0.730469 45 Z M 0.730469 0.742188 "/>
</clipPath>
<clipPath id="clip-6">
<path clip-rule="nonzero" d="M 19.019531 -168 C 16.789062 -154.558594 13.261719 -140.976562 11.976562 -135.273438 C 9.929688 -126.214844 7.988281 -117.601562 2.230469 -107.941406 C -4.6875 -96.324219 -11.105469 -93.285156 -19.828125 -83.914062 C -31.925781 -70.917969 -37.371094 -57.890625 -42.058594 -45.792969 C -54.03125 -14.894531 -51.699219 24.273438 -48.5625 45 L 102.457031 45 C 106.761719 38.054688 110.742188 30.132812 113.925781 21.191406 C 122.539062 -3.035156 121.734375 -24.734375 120.648438 -35.445312 C 119.257812 -49.128906 116.753906 -52.480469 115.398438 -62.496094 C 113.292969 -78.046875 116.148438 -114.71875 152.875 -165.652344 C 150.078125 -166.996094 146.988281 -167.820312 143.734375 -168 Z M 19.019531 -168 "/>
</clipPath>
<clipPath id="clip-7">
<rect x="0" y="0" width="30" height="45"/>
</clipPath>
<g id="source-5" clip-path="url(#clip-7)">
<g clip-path="url(#clip-5)">
<g clip-path="url(#clip-6)">
<path fill-rule="nonzero" fill="rgb(34.509277%, 11.764526%, 13.725281%)" fill-opacity="1" d="M 30 0.742188 C 27.636719 5.933594 23.960938 13.449219 21.40625 18.652344 C 12.683594 36.339844 3.023438 54.113281 0.730469 74.003906 C 1.171875 60.664062 5.769531 47.828125 11.394531 35.863281 C 17.027344 24.09375 23.621094 12.125 30 0.742188 "/>
</g>
</g>
</g>
<clipPath id="clip-8">
<path clip-rule="nonzero" d="M 263 60 L 416 60 L 416 170 L 263 170 Z M 263 60 "/>
</clipPath>
<clipPath id="clip-9">
<path clip-rule="nonzero" d="M 23.472656 0 C 10.6875 0.703125 0.445312 11.378906 0.445312 24.332031 L 0.445312 188.628906 C 0.445312 202.035156 11.410156 213 24.8125 213 L 436.394531 213 C 449.796875 213 460.761719 202.035156 460.761719 188.628906 L 460.761719 24.332031 C 460.761719 11.378906 450.519531 0.703125 437.734375 0 Z M 23.472656 0 "/>
</clipPath>
<clipPath id="clip-10">
<path clip-rule="nonzero" d="M 62 77 L 150 77 L 150 165 L 62 165 Z M 62 77 "/>
</clipPath>
<clipPath id="clip-11">
<path clip-rule="nonzero" d="M 23.472656 0 C 10.6875 0.703125 0.445312 11.378906 0.445312 24.332031 L 0.445312 188.628906 C 0.445312 202.035156 11.410156 213 24.8125 213 L 436.394531 213 C 449.796875 213 460.761719 202.035156 460.761719 188.628906 L 460.761719 24.332031 C 460.761719 11.378906 450.519531 0.703125 437.734375 0 Z M 23.472656 0 "/>
</clipPath>
<clipPath id="clip-12">
<path clip-rule="nonzero" d="M 100 116 L 131 116 L 131 148 L 100 148 Z M 100 116 "/>
</clipPath>
<clipPath id="clip-13">
<path clip-rule="nonzero" d="M 23.472656 0 C 10.6875 0.703125 0.445312 11.378906 0.445312 24.332031 L 0.445312 188.628906 C 0.445312 202.035156 11.410156 213 24.8125 213 L 436.394531 213 C 449.796875 213 460.761719 202.035156 460.761719 188.628906 L 460.761719 24.332031 C 460.761719 11.378906 450.519531 0.703125 437.734375 0 Z M 23.472656 0 "/>
</clipPath>
<clipPath id="clip-14">
<path clip-rule="nonzero" d="M 100 117 L 131 117 L 131 148 L 100 148 Z M 100 117 "/>
</clipPath>
<clipPath id="clip-15">
<path clip-rule="nonzero" d="M 23.472656 0 C 10.6875 0.703125 0.445312 11.378906 0.445312 24.332031 L 0.445312 188.628906 C 0.445312 202.035156 11.410156 213 24.8125 213 L 436.394531 213 C 449.796875 213 460.761719 202.035156 460.761719 188.628906 L 460.761719 24.332031 C 460.761719 11.378906 450.519531 0.703125 437.734375 0 Z M 23.472656 0 "/>
</clipPath>
<clipPath id="clip-16">
<path clip-rule="nonzero" d="M 127 145 L 152 145 L 152 169 L 127 169 Z M 127 145 "/>
</clipPath>
<clipPath id="clip-17">
<path clip-rule="nonzero" d="M 23.472656 0 C 10.6875 0.703125 0.445312 11.378906 0.445312 24.332031 L 0.445312 188.628906 C 0.445312 202.035156 11.410156 213 24.8125 213 L 436.394531 213 C 449.796875 213 460.761719 202.035156 460.761719 188.628906 L 460.761719 24.332031 C 460.761719 11.378906 450.519531 0.703125 437.734375 0 Z M 23.472656 0 "/>
</clipPath>
<clipPath id="clip-18">
<path clip-rule="nonzero" d="M 140 158 L 201 158 L 201 213 L 140 213 Z M 140 158 "/>
</clipPath>
<clipPath id="clip-19">
<path clip-rule="nonzero" d="M 23.472656 0 C 10.6875 0.703125 0.445312 11.378906 0.445312 24.332031 L 0.445312 188.628906 C 0.445312 202.035156 11.410156 213 24.8125 213 L 436.394531 213 C 449.796875 213 460.761719 202.035156 460.761719 188.628906 L 460.761719 24.332031 C 460.761719 11.378906 450.519531 0.703125 437.734375 0 Z M 23.472656 0 "/>
</clipPath>
<clipPath id="clip-20">
<path clip-rule="nonzero" d="M 128 177 L 161 177 L 161 193 L 128 193 Z M 128 177 "/>
</clipPath>
<clipPath id="clip-21">
<path clip-rule="nonzero" d="M 23.472656 0 C 10.6875 0.703125 0.445312 11.378906 0.445312 24.332031 L 0.445312 188.628906 C 0.445312 202.035156 11.410156 213 24.8125 213 L 436.394531 213 C 449.796875 213 460.761719 202.035156 460.761719 188.628906 L 460.761719 24.332031 C 460.761719 11.378906 450.519531 0.703125 437.734375 0 Z M 23.472656 0 "/>
</clipPath>
<clipPath id="clip-22">
<path clip-rule="nonzero" d="M 157 152 L 175 152 L 175 184 L 157 184 Z M 157 152 "/>
</clipPath>
<clipPath id="clip-23">
<path clip-rule="nonzero" d="M 23.472656 0 C 10.6875 0.703125 0.445312 11.378906 0.445312 24.332031 L 0.445312 188.628906 C 0.445312 202.035156 11.410156 213 24.8125 213 L 436.394531 213 C 449.796875 213 460.761719 202.035156 460.761719 188.628906 L 460.761719 24.332031 C 460.761719 11.378906 450.519531 0.703125 437.734375 0 Z M 23.472656 0 "/>
</clipPath>
</defs>
<g clip-path="url(#clip-0)">
<path fill-rule="nonzero" fill="rgb(97.647095%, 56.079102%, 49.01886%)" fill-opacity="1" d="M 436.394531 213 L 24.816406 213 C 11.410156 213 0.445312 202.035156 0.445312 188.632812 L 0.445312 24.332031 C 0.445312 10.929688 11.410156 -0.0351562 24.816406 -0.0351562 L 436.394531 -0.0351562 C 449.796875 -0.0351562 460.761719 10.929688 460.761719 24.332031 L 460.761719 188.632812 C 460.761719 202.035156 449.796875 213 436.394531 213 "/>
</g>
<g clip-path="url(#clip-1)">
<g clip-path="url(#clip-2)">
<path fill-rule="nonzero" fill="rgb(100%, 70.196533%, 61.177063%)" fill-opacity="1" d="M 314.882812 -22.191406 C 315.789062 -5.554688 308.027344 23.621094 305.976562 32.726562 C 303.929688 41.785156 301.988281 50.398438 296.234375 60.058594 C 289.3125 71.675781 282.894531 74.714844 274.171875 84.085938 C 262.074219 97.082031 256.628906 110.109375 251.941406 122.207031 C 237.375 159.796875 243.980469 209.632812 247.453125 223.605469 C 286.433594 236.4375 325.757812 235.144531 364.738281 247.976562 C 374.875 240.171875 396.527344 221.238281 407.925781 189.1875 C 416.539062 164.964844 415.734375 143.265625 414.648438 132.554688 C 413.257812 118.871094 410.753906 115.519531 409.398438 105.5 C 407.28125 89.851562 410.1875 52.800781 447.597656 1.347656 C 407.421875 -12.375 355.058594 -8.46875 314.882812 -22.191406 "/>
</g>
</g>
<g clip-path="url(#clip-3)">
<g clip-path="url(#clip-4)">
<g mask="url(#mask-0)">
<use xlink:href="#source-5" transform="matrix(1, 0, 0, 1, 294, 168)"/>
</g>
</g>
</g>
<g clip-path="url(#clip-8)">
<g clip-path="url(#clip-9)">
<path fill-rule="nonzero" fill="rgb(52.549744%, 75.294495%, 80.784607%)" fill-opacity="1" d="M 263.324219 98.242188 C 273.867188 104.488281 289.328125 115.425781 303.390625 133.261719 C 313.824219 146.496094 320.199219 159.355469 324.109375 169.132812 C 332.699219 161.023438 350.011719 146.949219 375.910156 139.996094 C 391.691406 135.761719 405.527344 135.546875 415.289062 136.222656 C 413.753906 126.972656 411.929688 117.347656 410.820312 106.328125 C 409.921875 97.441406 409.8125 99.644531 409.800781 91.734375 C 398.5 93.828125 374.117188 94.796875 349.144531 88.21875 C 322.992188 81.332031 303.804688 68.386719 295.039062 60.777344 C 293.027344 64.351562 291.484375 65.710938 288.019531 69.648438 C 283.257812 75.050781 280.183594 77.214844 274.453125 83.695312 C 269.25 89.582031 265.570312 94.820312 263.324219 98.242188 "/>
</g>
</g>
<g clip-path="url(#clip-10)">
<g clip-path="url(#clip-11)">
<path fill-rule="nonzero" fill="rgb(100%, 76.078796%, 74.118042%)" fill-opacity="1" d="M 138.328125 82.582031 C 129.433594 76.15625 117.058594 76.1875 108.113281 82.550781 C 98.25 89.574219 95.011719 101.578125 98.351562 111.976562 C 88.164062 108.035156 75.984375 110.578125 68.40625 120.03125 C 61.539062 128.59375 60.796875 140.945312 66.703125 150.195312 C 71.757812 158.113281 79.902344 162.238281 88.160156 162.476562 L 147.636719 164.199219 L 149.359375 104.722656 C 149.597656 96.460938 145.949219 88.089844 138.328125 82.582031 "/>
</g>
</g>
<g clip-path="url(#clip-12)">
<g clip-path="url(#clip-13)">
<path fill-rule="nonzero" fill="rgb(98.823547%, 98.823547%, 98.823547%)" fill-opacity="1" d="M 101.148438 137.027344 L 108.375 131.246094 L 102.59375 124.019531 C 101.804688 123.035156 101.964844 121.605469 102.949219 120.816406 L 107.328125 117.3125 C 108.3125 116.523438 109.746094 116.683594 110.53125 117.667969 L 116.3125 124.894531 L 123.539062 119.113281 C 124.519531 118.324219 125.953125 118.484375 126.742188 119.46875 L 130.246094 123.847656 C 131.03125 124.832031 130.871094 126.265625 129.890625 127.050781 L 122.664062 132.832031 L 128.445312 140.058594 C 129.230469 141.039062 129.074219 142.472656 128.089844 143.261719 L 123.710938 146.765625 C 122.726562 147.550781 121.292969 147.390625 120.507812 146.410156 L 114.726562 139.183594 L 107.5 144.964844 C 106.515625 145.753906 105.082031 145.59375 104.296875 144.609375 L 100.792969 140.230469 C 100.007812 139.246094 100.164062 137.8125 101.148438 137.027344 "/>
</g>
</g>
<g clip-path="url(#clip-14)">
<g clip-path="url(#clip-15)">
<path fill-rule="nonzero" fill="rgb(98.823547%, 98.823547%, 98.823547%)" fill-opacity="1" d="M 101.089844 137.5625 L 108.3125 131.78125 L 102.53125 124.554688 C 101.746094 123.570312 101.90625 122.136719 102.890625 121.351562 L 107.269531 117.847656 C 108.253906 117.0625 109.683594 117.21875 110.472656 118.203125 L 116.253906 125.429688 L 123.476562 119.648438 C 124.460938 118.859375 125.894531 119.019531 126.679688 120.003906 L 130.1875 124.382812 C 130.972656 125.367188 130.8125 126.800781 129.832031 127.585938 L 122.605469 133.367188 L 128.386719 140.59375 C 129.171875 141.574219 129.011719 143.007812 128.03125 143.796875 L 123.648438 147.300781 C 122.667969 148.085938 121.234375 147.925781 120.445312 146.945312 L 114.667969 139.71875 L 107.441406 145.5 C 106.457031 146.285156 105.023438 146.128906 104.238281 145.144531 L 100.734375 140.765625 C 99.945312 139.78125 100.105469 138.347656 101.089844 137.5625 "/>
</g>
</g>
<g clip-path="url(#clip-16)">
<g clip-path="url(#clip-17)">
<path fill-rule="nonzero" fill="rgb(45.489502%, 69.020081%, 67.451477%)" fill-opacity="1" d="M 147.832031 145.550781 C 146.886719 145.261719 146.074219 145.570312 145.414062 145.996094 C 143.546875 147.207031 142.445312 149.40625 142.398438 152.027344 C 141.863281 150.738281 141.253906 149.375 140.1875 148.367188 C 137.890625 146.191406 134.820312 147.101562 134.089844 149.339844 C 133.363281 151.578125 134.175781 154.535156 134.8125 157.304688 C 134.859375 157.511719 134.90625 157.726562 134.871094 157.910156 C 134.765625 158.398438 134.132812 158.378906 133.609375 158.359375 C 130.085938 158.203125 127.574219 160.878906 127.773438 164.574219 C 127.800781 165.074219 127.882812 165.628906 128.214844 166.121094 C 128.898438 167.125 130.140625 167.3125 131.113281 167.339844 C 136.757812 167.492188 149.21875 168.625 149.21875 168.625 C 149.21875 168.625 151.09375 157.5625 151.210938 152.386719 C 151.238281 151.171875 151.226562 149.90625 150.71875 148.597656 C 150.214844 147.292969 149.082031 145.933594 147.832031 145.550781 "/>
</g>
</g>
<g clip-path="url(#clip-18)">
<g clip-path="url(#clip-19)">
<path fill-rule="nonzero" fill="rgb(45.489502%, 69.020081%, 67.451477%)" fill-opacity="1" d="M 200.566406 255.539062 C 200.378906 254.964844 181.582031 197.757812 142.742188 158.953125 L 140.535156 161.164062 C 178.828125 199.425781 197.40625 255.933594 197.589844 256.5 Z M 200.566406 255.539062 "/>
</g>
</g>
<g clip-path="url(#clip-20)">
<g clip-path="url(#clip-21)">
<path fill-rule="nonzero" fill="rgb(45.489502%, 69.020081%, 67.451477%)" fill-opacity="1" d="M 128.089844 186.28125 C 133.351562 182.757812 142.75 178.914062 147.546875 177.964844 C 154.324219 176.621094 161.601562 179.867188 160.621094 186.011719 C 157.78125 195.546875 139.074219 194.484375 128.089844 186.28125 "/>
</g>
</g>
<g clip-path="url(#clip-22)">
<g clip-path="url(#clip-23)">
<path fill-rule="nonzero" fill="rgb(45.489502%, 69.020081%, 67.451477%)" fill-opacity="1" d="M 173.402344 152.664062 C 174.59375 158.882812 174.464844 169.035156 173.464844 173.820312 C 172.054688 180.585938 166.226562 186.015625 160.953125 182.714844 C 153.285156 176.382812 161.5625 159.574219 173.402344 152.664062 "/>
</g>
</g>
</svg>
